<svg width="440" height="460" viewBox="0 0 440 460" fill="none" xmlns="http://www.w3.org/2000/svg">
<path d="M142 71H88.8581C84.1218 71 79.5796 72.8813 76.2305 76.2303C72.8815 79.5794 71 84.1212 71 88.8574V195.142C71 197.487 71.4619 199.809 72.3593 201.976C73.2568 204.142 74.5722 206.11 76.2305 207.769C77.8887 209.427 79.8574 210.743 82.024 211.641C84.1907 212.538 86.5128 213 88.858 213H142C160.83 213 178.89 205.519 192.205 192.204C205.52 178.889 213 160.83 213 142C213 123.17 205.52 105.11 192.205 91.7949C178.89 78.4798 160.83 71 142 71Z" fill="#F4C345"/>
<path d="M189.3 106.476H136.158C133.813 106.476 131.491 106.938 129.324 107.835C127.157 108.733 125.189 110.048 123.531 111.706C121.872 113.365 120.557 115.333 119.659 117.5C118.762 119.667 118.3 121.989 118.3 124.334V230.618C118.3 235.354 120.181 239.897 123.531 243.246C126.88 246.595 131.422 248.476 136.158 248.476H189.3C198.624 248.476 207.857 246.64 216.471 243.072C225.085 239.504 232.912 234.273 239.505 227.68C246.098 221.087 251.327 213.26 254.895 204.646C258.464 196.032 260.3 186.8 260.3 177.476C260.3 158.646 252.82 140.587 239.505 127.272C226.19 113.957 208.13 106.476 189.3 106.476Z" fill="#FF7E69"/>
<path d="M236.599 141.952H183.457C181.112 141.952 178.79 142.414 176.623 143.311C174.456 144.209 172.488 145.524 170.829 147.182C169.171 148.84 167.856 150.809 166.958 152.976C166.061 155.142 165.599 157.464 165.599 159.809V266.093C165.599 270.83 167.48 275.372 170.829 278.721C174.178 282.07 178.721 283.952 183.457 283.952H236.599C255.429 283.952 273.488 276.471 286.803 263.156C300.119 249.841 307.599 231.782 307.599 212.952C307.599 194.121 300.119 176.062 286.803 162.747C273.488 149.432 255.429 141.952 236.599 141.952Z" fill="#391145"/>
<path d="M283.898 177.425H230.756C226.02 177.425 221.478 179.307 218.129 182.656C214.78 186.005 212.898 190.547 212.898 195.284V301.567C212.898 306.303 214.78 310.846 218.129 314.195C221.478 317.544 226.02 319.425 230.756 319.425H283.898C302.729 319.425 320.788 311.945 334.103 298.629C347.418 285.314 354.898 267.256 354.898 248.425C354.898 229.595 347.418 211.536 334.103 198.221C320.788 184.906 302.729 177.425 283.898 177.425Z" fill="#52A8CE"/>
<path d="M287.738 386.783L312.585 362.765C314.743 360.682 317.351 359.123 320.207 358.207C323.064 357.292 326.092 357.046 329.059 357.487L362.661 362.47C363.746 362.636 364.856 362.476 365.851 362.012C366.845 361.547 367.68 360.8 368.25 359.861C368.82 358.923 369.099 357.837 369.052 356.74C369.006 355.644 368.635 354.585 367.988 353.699L288.358 245.097C287.663 244.149 286.688 243.445 285.57 243.084C284.452 242.724 283.249 242.725 282.131 243.088C281.014 243.451 280.04 244.157 279.348 245.106C278.655 246.055 278.28 247.198 278.275 248.373V382.797C278.279 383.891 278.605 384.96 279.212 385.87C279.819 386.781 280.68 387.492 281.689 387.917C282.697 388.342 283.808 388.461 284.884 388.26C285.959 388.058 286.952 387.544 287.738 386.783Z" fill="#391145"/>
</svg>